<svg
        width="595.99982mm"
        height="111.99988mm"
        viewBox="0 0 595.99982 111.99988"
        version="1.1"
        id="svg5"
        inkscape:export-filename="bitmap.svg"
        inkscape:export-xdpi="25.400009"
        inkscape:export-ydpi="25.400009"
        xmlns:inkscape="http://www.inkscape.org/namespaces/inkscape"
        xmlns:sodipodi="http://sodipodi.sourceforge.net/DTD/sodipodi-0.dtd"
        xmlns="http://www.w3.org/2000/svg"
        xmlns:svg="http://www.w3.org/2000/svg">
    <sodipodi:namedview
            id="namedview7"
            pagecolor="#ffffff"
            bordercolor="#000000"
            borderopacity="0.25"
            inkscape:showpageshadow="2"
            inkscape:pageopacity="0.0"
            inkscape:pagecheckerboard="0"
            inkscape:deskcolor="#d1d1d1"
            inkscape:document-units="mm"
            showgrid="false" />
    <defs
            id="defs2" />
    <g
            inkscape:label="Layer 1"
            inkscape:groupmode="layer"
            id="layer1"
            transform="translate(-0.48627522,-0.48627521)">
        <path
                id="text113"
                style="font-weight:bold;font-size:82.9028px;font-family:Barlow;-inkscape-font-specification:'Barlow Bold';letter-spacing:-3.50573px;fill:#000000;stroke-width:0.264583"
                d="M 0.48627523,0.48627523 V 112.48616 H 596.48607 V 0.48627523 Z M 135.07909,22.704557 c 1.71333,0 3.1228,0.552411 4.22817,1.65778 1.10537,1.10537 1.65778,2.514843 1.65778,4.228166 0,1.713323 -0.55241,3.122796 -1.65778,4.228166 -1.10537,1.105369 -2.51484,1.65778 -4.22817,1.65778 -1.71332,0 -3.12279,-0.552411 -4.22816,-1.65778 -1.10537,-1.10537 -1.6583,-2.514843 -1.6583,-4.228166 0,-1.713323 0.55293,-3.122796 1.6583,-4.228166 1.10537,-1.105369 2.51484,-1.65778 4.22816,-1.65778 z m 323.26554,0 c 1.71333,0 3.1228,0.552411 4.22817,1.65778 1.10537,1.10537 1.65778,2.514843 1.65778,4.228166 0,1.713323 -0.55241,3.122796 -1.65778,4.228166 -1.10537,1.105369 -2.51484,1.65778 -4.22817,1.65778 -1.71332,0 -3.12279,-0.552411 -4.22816,-1.65778 -1.10537,-1.10537 -1.65778,-2.514843 -1.65778,-4.228166 0,-1.713323 0.55241,-3.122796 1.65778,-4.228166 1.10537,-1.105369 2.51484,-1.65778 4.22816,-1.65778 z M 11.214303,24.610901 h 7.626924 c 0.276343,0 0.49772,0.110689 0.663526,0.331763 0.221074,0.165805 0.331246,0.387183 0.331246,0.663525 v 56.042057 c 0,0.276343 -0.110172,0.525134 -0.331246,0.746208 -0.165806,0.165805 -0.387183,0.248564 -0.663526,0.248564 h -7.626924 c -0.276343,0 -0.525134,-0.08276 -0.746208,-0.248564 -0.165806,-0.221074 -0.248564,-0.469865 -0.248564,-0.746208 V 25.606189 c 0,-0.276342 0.08276,-0.49772 0.248564,-0.663525 0.221074,-0.221074 0.469865,-0.331763 0.746208,-0.331763 z m 35.289318,0 h 7.626925 c 0.276342,0 0.497203,0.110689 0.663009,0.331763 0.221074,0.165805 0.331762,0.387183 0.331762,0.663525 v 17.9896 c 0,0.165805 0.05534,0.276494 0.165882,0.331762 0.110537,0.05527 0.221225,0.02734 0.331762,-0.0832 2.376545,-2.818692 5.526524,-4.227649 9.450586,-4.227649 4.089868,0 7.461225,1.022063 10.114112,3.066997 2.708155,2.044933 4.697969,4.891294 5.969144,8.539013 0.939565,3.095035 1.409217,6.466392 1.409217,10.114112 0,3.924062 -0.524997,7.378693 -1.575098,10.363191 -1.215907,3.64772 -3.17779,6.49408 -5.885946,8.539014 -2.708155,2.044934 -6.024168,3.067513 -9.94823,3.067513 -3.868793,0 -7.046703,-1.464818 -9.533785,-4.394047 -0.110537,-0.165806 -0.221225,-0.22115 -0.331762,-0.165881 -0.110537,0.05527 -0.165882,0.165957 -0.165882,0.331762 v 2.569869 c 0,0.276343 -0.110688,0.525134 -0.331762,0.746208 -0.165806,0.165805 -0.386667,0.248564 -0.663009,0.248564 h -7.626925 c -0.276342,0 -0.525133,-0.08276 -0.746207,-0.248564 C 45.591608,82.17338 45.50885,81.924589 45.50885,81.648246 V 25.606189 c 0,-0.276342 0.08276,-0.49772 0.248564,-0.663525 0.221074,-0.221074 0.469865,-0.331763 0.746207,-0.331763 z m 101.732809,0 h 7.62744 c 0.27634,0 0.4972,0.110689 0.66301,0.331763 0.22107,0.165805 0.33176,0.387183 0.33176,0.663525 v 56.042057 c 0,0.276343 -0.11069,0.525134 -0.33176,0.746208 -0.16581,0.165805 -0.38667,0.248564 -0.66301,0.248564 h -7.62744 c -0.27634,0 -0.52462,-0.08276 -0.74569,-0.248564 -0.16581,-0.221074 -0.24908,-0.469865 -0.24908,-0.746208 V 25.606189 c 0,-0.276342 0.0833,-0.49772 0.24908,-0.663525 0.22107,-0.221074 0.46935,-0.331763 0.74569,-0.331763 z m 42.58861,0 h 7.62693 c 0.27634,0 0.4972,0.110689 0.66301,0.331763 0.22107,0.165805 0.33176,0.387183 0.33176,0.663525 v 56.042057 c 0,0.276343 -0.11069,0.525134 -0.33176,0.746208 -0.16581,0.165805 -0.38667,0.248564 -0.66301,0.248564 h -7.62693 c -0.27634,0 -0.52513,-0.08276 -0.7462,-0.248564 -0.16581,-0.221074 -0.24857,-0.469865 -0.24857,-0.746208 V 79.16106 c 0,-0.165806 -0.0553,-0.275978 -0.16588,-0.331246 -0.11053,-0.05527 -0.22122,-4.41e-4 -0.33176,0.165364 -2.43181,2.873961 -5.60972,4.311365 -9.53379,4.311365 -3.92406,0 -7.24007,-1.022579 -9.94823,-3.067513 -2.70815,-2.044934 -4.67055,-4.891294 -5.88646,-8.539014 -0.99483,-3.095035 -1.4919,-6.549666 -1.4919,-10.363191 0,-3.924062 0.46966,-7.295419 1.40922,-10.114112 1.21591,-3.647719 3.17779,-6.49408 5.88595,-8.539013 2.70815,-2.044934 6.10744,-3.066997 10.19731,-3.066997 3.81352,0 6.93609,1.381543 9.3679,4.144967 0.11054,0.110537 0.22123,0.165881 0.33176,0.165881 0.11054,-0.05527 0.16588,-0.165957 0.16588,-0.331762 v -17.9896 c 0,-0.276342 0.0828,-0.49772 0.24857,-0.663525 0.22107,-0.221074 0.46986,-0.331763 0.7462,-0.331763 z m 159.73754,0 h 7.62744 c 0.27635,0 0.49721,0.110689 0.66301,0.331763 0.22108,0.165805 0.33176,0.387183 0.33176,0.663525 v 56.042057 c 0,0.276343 -0.11068,0.525134 -0.33176,0.746208 -0.1658,0.165805 -0.38666,0.248564 -0.66301,0.248564 h -7.62744 c -0.27634,0 -0.52462,-0.08276 -0.74569,-0.248564 -0.1658,-0.221074 -0.24908,-0.469865 -0.24908,-0.746208 V 25.606189 c 0,-0.276342 0.0833,-0.49772 0.24908,-0.663525 0.22107,-0.221074 0.46935,-0.331763 0.74569,-0.331763 z m 61.712,0 h 7.62692 c 0.27634,0 0.4972,0.110689 0.66301,0.331763 0.22107,0.165805 0.33176,0.387183 0.33176,0.663525 v 18.321362 c 0,0.165806 0.0553,0.276494 0.16588,0.331763 0.11054,0.05527 0.1933,-7.6e-5 0.24857,-0.165881 2.26601,-2.984498 5.69271,-4.47673 10.27999,-4.47673 4.47675,0 8.04155,1.326199 10.69444,3.979086 2.70815,2.652887 4.06228,6.273035 4.06228,10.860319 v 27.192138 c 0,0.276343 -0.11069,0.525134 -0.33176,0.746208 -0.16581,0.165805 -0.38667,0.248564 -0.66301,0.248564 h -7.62692 c -0.27635,0 -0.52514,-0.08276 -0.74621,-0.248564 -0.16581,-0.221074 -0.24856,-0.469865 -0.24856,-0.746208 V 56.44565 c 0,-2.54235 -0.71897,-4.586992 -2.15595,-6.134509 -1.43698,-1.602786 -3.34352,-2.404504 -5.72006,-2.404504 -2.37654,0 -4.31101,0.773787 -5.80326,2.321305 -1.43698,1.547517 -2.15543,3.592676 -2.15543,6.135026 v 25.285278 c 0,0.276343 -0.11069,0.525134 -0.33176,0.746208 -0.16581,0.165805 -0.38667,0.248564 -0.66301,0.248564 h -7.62692 c -0.27635,0 -0.52514,-0.08276 -0.74621,-0.248564 -0.16581,-0.221074 -0.24856,-0.469865 -0.24856,-0.746208 V 25.606189 c 0,-0.276342 0.0827,-0.49772 0.24856,-0.663525 0.22107,-0.221074 0.46986,-0.331763 0.74621,-0.331763 z m -24.10137,4.559928 h 7.21299 c 0.27634,0 0.49721,0.110689 0.66301,0.331763 0.22107,0.165805 0.33176,0.386666 0.33176,0.663009 v 9.699666 c 0,0.276342 0.13811,0.414445 0.41445,0.414445 h 8.45581 c 0.27635,0 0.49772,0.110689 0.66353,0.331763 0.22107,0.165805 0.33176,0.386666 0.33176,0.663008 v 5.803264 c 0,0.276342 -0.11069,0.525133 -0.33176,0.746207 -0.16581,0.165806 -0.38718,0.248564 -0.66353,0.248564 h -8.45581 c -0.27634,0 -0.41445,0.138102 -0.41445,0.414445 v 19.979659 c 0,2.100202 0.44224,3.620364 1.32654,4.559928 0.93956,0.939564 2.40386,1.409217 4.39353,1.409217 h 2.48718 c 0.27635,0 0.49721,0.110688 0.66301,0.331762 0.22108,0.165806 0.33177,0.386667 0.33177,0.663009 v 6.217708 c 0,0.607954 -0.33155,0.967434 -0.99478,1.077971 l -4.31084,0.08268 c -4.36621,0 -7.6274,-0.746374 -9.78287,-2.238623 -2.15547,-1.492249 -3.26081,-4.310679 -3.31608,-8.455815 V 48.486963 c 0,-0.276343 -0.1381,-0.414445 -0.41444,-0.414445 h -4.72529 c -0.27635,0 -0.52514,-0.08276 -0.74621,-0.248564 -0.16581,-0.221074 -0.24857,-0.469865 -0.24857,-0.746207 v -5.803264 c 0,-0.276342 0.0828,-0.497203 0.24857,-0.663008 0.22107,-0.221074 0.46986,-0.331763 0.74621,-0.331763 h 4.72529 c 0.27634,0 0.41444,-0.138103 0.41444,-0.414445 v -9.699666 c 0,-0.276343 0.0833,-0.497204 0.24908,-0.663009 0.22108,-0.221074 0.46935,-0.331763 0.7457,-0.331763 z M 241.94854,39.616703 c 4.31094,0 8.06919,1.077407 11.27476,3.232878 3.20558,2.155471 5.33349,4.863728 6.38359,8.124569 0.27635,0.884295 0.46979,1.768772 0.58033,2.653068 v 0.165881 c 0,0.552685 -0.30414,0.884234 -0.91209,0.994771 l -7.46104,1.077454 h -0.16588 c -0.49742,0 -0.82897,-0.276205 -0.99478,-0.82889 0,-0.276342 -0.0274,-0.497203 -0.0827,-0.663009 -0.11054,-0.442148 -0.22122,-0.829042 -0.33176,-1.160652 -0.49742,-1.547518 -1.49207,-2.818888 -2.98431,-3.813721 -1.49225,-0.994833 -3.26121,-1.492415 -5.30614,-1.492415 -2.1002,0 -3.89657,0.552927 -5.38882,1.658296 -1.43698,1.050101 -2.4037,2.514919 -2.90111,4.394047 -0.55269,1.768592 -0.82941,4.227541 -0.82941,7.377845 0,3.039766 0.24879,5.499232 0.74621,7.378361 0.55268,1.934396 1.54733,3.481972 2.98431,4.64261 1.43698,1.10537 3.23335,1.658297 5.38882,1.658297 2.1002,0 3.89657,-0.524997 5.38882,-1.575098 1.54751,-1.105369 2.54216,-2.570187 2.98431,-4.394047 0.0553,-0.110537 0.0832,-0.248639 0.0832,-0.414445 0.0553,-0.05527 0.0827,-0.138026 0.0827,-0.248563 0.16581,-0.663222 0.5527,-0.939944 1.16066,-0.829407 l 7.46156,1.160653 c 0.27634,0.05527 0.4972,0.193887 0.663,0.414961 0.22108,0.165806 0.30384,0.41408 0.24857,0.745691 -0.16581,0.884296 -0.30391,1.519981 -0.41445,1.906861 -1.0501,3.537182 -3.17801,6.356129 -6.38359,8.456331 -3.20557,2.044934 -6.96382,3.067513 -11.27476,3.067513 -4.25567,0 -7.93117,-1.077924 -11.0262,-3.233394 -3.09504,-2.21074 -5.25037,-5.167789 -6.46627,-8.870777 -0.8843,-2.487081 -1.32654,-5.803094 -1.32654,-9.94823 0,-3.97933 0.44224,-7.239998 1.32654,-9.782348 1.16063,-3.64772 3.28855,-6.522011 6.38359,-8.622213 3.1503,-2.155471 6.85321,-3.232878 11.10888,-3.232878 z m 40.51587,0 c 4.20041,0 7.82056,1.077407 10.86032,3.232878 3.09504,2.155471 5.2783,5.139933 6.54947,8.953459 0.99484,2.652887 1.4919,5.803383 1.4919,9.451102 0,3.481914 -0.46965,6.632411 -1.40922,9.451103 -1.27117,3.924062 -3.45443,7.018697 -6.54947,9.284705 -3.09503,2.210739 -6.77001,3.316593 -11.02568,3.316593 -4.36621,0 -8.12498,-1.105854 -11.27528,-3.316593 -3.09504,-2.21074 -5.27778,-5.277961 -6.54895,-9.202023 -0.93957,-2.984498 -1.40922,-6.134994 -1.40922,-9.451102 0,-3.537183 0.44172,-6.687162 1.32602,-9.450586 1.27117,-3.868794 3.48185,-6.881187 6.63215,-9.036658 3.1503,-2.155471 6.93648,-3.232878 11.35796,-3.232878 z m 42.5881,0 c 4.2004,0 7.82055,1.077407 10.86032,3.232878 3.09503,2.155471 5.2783,5.139933 6.54947,8.953459 0.99483,2.652887 1.4919,5.803383 1.4919,9.451102 0,3.481914 -0.46965,6.632411 -1.40922,9.451103 -1.27117,3.924062 -3.45443,7.018697 -6.54947,9.284705 -3.09503,2.210739 -6.77001,3.316593 -11.02568,3.316593 -4.36621,0 -8.12446,-1.105854 -11.27477,-3.316593 -3.09503,-2.21074 -5.27829,-5.277961 -6.54947,-9.202023 -0.93956,-2.984498 -1.40921,-6.134994 -1.40921,-9.451102 0,-3.537183 0.44224,-6.687162 1.32653,-9.450586 1.27118,-3.868794 3.48185,-6.881187 6.63215,-9.036658 3.15031,-2.155471 6.93597,-3.232878 11.35745,-3.232878 z m 165.76611,0 c 4.47675,0 8.04155,1.326199 10.69444,3.979086 2.70815,2.652887 4.06228,6.273035 4.06228,10.860319 v 27.192138 c 0,0.276343 -0.11069,0.525134 -0.33176,0.746208 -0.16581,0.165805 -0.38667,0.248564 -0.66301,0.248564 h -7.62692 c -0.27635,0 -0.52514,-0.08276 -0.74621,-0.248564 -0.16581,-0.221074 -0.24908,-0.469865 -0.24908,-0.746208 V 56.44565 c 0,-2.54235 -0.71845,-4.586992 -2.15543,-6.134509 -1.43698,-1.602786 -3.34352,-2.404504 -5.72006,-2.404504 -2.37655,0 -4.31101,0.773787 -5.80326,2.321305 -1.43698,1.547517 -2.15543,3.592676 -2.15543,6.135026 v 25.285278 c 0,0.276343 -0.11069,0.525134 -0.33176,0.746208 -0.16581,0.165805 -0.38667,0.248564 -0.66301,0.248564 h -7.62692 c -0.27635,0 -0.52514,-0.08276 -0.74621,-0.248564 -0.16581,-0.221074 -0.24908,-0.469865 -0.24908,-0.746208 V 41.274483 c 0,-0.276342 0.0833,-0.497203 0.24908,-0.663008 0.22107,-0.221074 0.46986,-0.331763 0.74621,-0.331763 h 7.62692 c 0.27634,0 0.4972,0.110689 0.66301,0.331763 0.22107,0.165805 0.33176,0.386666 0.33176,0.663008 v 2.653068 c 0,0.165806 0.0553,0.276494 0.16588,0.331763 0.11054,0.05527 0.1933,-7.6e-5 0.24857,-0.165881 2.266,-2.984498 5.69271,-4.47673 10.27999,-4.47673 z m 36.53627,0 c 4.36621,0 7.7655,1.270854 10.19731,3.813204 0.11054,0.165806 0.22071,0.22115 0.33125,0.165882 0.11053,-0.05527 0.16588,-0.165958 0.16588,-0.331763 v -1.989543 c 0,-0.276342 0.0833,-0.497203 0.24908,-0.663008 0.22107,-0.221074 0.46935,-0.331763 0.74569,-0.331763 h 7.62744 c 0.27634,0 0.4972,0.110689 0.66301,0.331763 0.22107,0.165805 0.33176,0.386666 0.33176,0.663008 v 38.550102 c 0,6.90856 -1.98981,11.827493 -5.96914,14.756722 -3.92406,2.984498 -9.09179,4.476729 -15.50293,4.476729 -1.71332,0 -3.399,-0.08328 -5.05706,-0.24908 -0.60795,-0.05527 -0.91209,-0.414232 -0.91209,-1.077454 l 0.24908,-6.798034 c 0,-0.607954 0.3869,-0.912089 1.16066,-0.912089 1.60278,0.165805 3.03967,0.248563 4.31084,0.248563 4.14514,0 7.18495,-0.828615 9.11934,-2.48667 1.98967,-1.602786 2.98432,-4.338974 2.98432,-8.207767 v -0.663009 c 0,-0.165806 -0.0554,-0.248564 -0.16588,-0.248564 -0.11054,-0.05527 -0.22071,-0.02785 -0.33125,0.08268 -2.26601,2.431813 -5.47185,3.647839 -9.61698,3.647839 -3.59245,0 -6.88105,-0.911891 -9.86555,-2.73575 -2.9845,-1.82386 -5.05707,-4.614876 -6.21771,-8.373133 -0.71849,-2.597618 -1.07745,-5.941561 -1.07745,-10.031429 0,-4.587284 0.44224,-8.096743 1.32653,-10.528556 1.10537,-3.371377 3.01191,-6.052221 5.72007,-8.041886 2.70815,-2.044934 5.88606,-3.066997 9.53378,-3.066997 z m 41.75921,0.165882 c 3.37138,0 6.32843,0.55241 8.87078,1.65778 2.54235,1.050101 4.50423,2.542332 5.88594,4.476729 1.38171,1.879128 2.07274,4.034459 2.07274,6.466272 0,0.276342 -0.11069,0.525134 -0.33176,0.746208 -0.16581,0.165805 -0.38667,0.24908 -0.66301,0.24908 h -7.04711 c -0.27635,0 -0.52462,-0.08328 -0.74569,-0.24908 -0.16581,-0.221074 -0.24908,-0.469866 -0.24908,-0.746208 0,-1.436981 -0.71845,-2.625076 -2.15543,-3.56464 -1.38171,-0.994833 -3.28825,-1.492416 -5.72006,-1.492416 -2.15547,0 -3.92443,0.414825 -5.30614,1.243852 -1.32644,0.773759 -1.98954,1.879096 -1.98954,3.316077 0,1.326443 0.63568,2.349022 1.90686,3.067513 1.32644,0.663221 3.5097,1.409079 6.54947,2.238106 l 1.82366,0.497644 c 2.92923,0.884296 5.3887,1.796186 7.37836,2.73575 1.98967,0.884296 3.67535,2.15515 5.05706,3.813204 1.38171,1.602786 2.07274,3.703289 2.07274,6.300908 0,3.924062 -1.54758,7.019213 -4.64261,9.285221 -3.09504,2.210739 -7.21277,3.316077 -12.35274,3.316077 -3.48191,0 -6.54913,-0.497583 -9.20202,-1.492416 -2.59762,-1.050101 -4.61484,-2.459574 -6.05183,-4.228165 -1.43698,-1.82386 -2.15542,-3.841088 -2.15542,-6.051827 v -0.746208 c 0,-0.276342 0.0828,-0.497203 0.24856,-0.663009 0.22108,-0.221074 0.46987,-0.331762 0.74621,-0.331762 h 7.29516 c 0.27635,0 0.49772,0.110688 0.66353,0.331762 0.22107,0.165806 0.33176,0.386667 0.33176,0.663009 v 0.165881 c 0,1.381712 0.74586,2.597738 2.23811,3.64784 1.54752,0.994832 3.48199,1.492415 5.80326,1.492415 2.21074,0 4.00711,-0.442238 5.38882,-1.326534 1.38171,-0.939564 2.07223,-2.100246 2.07223,-3.481958 0,-1.271175 -0.58035,-2.210996 -1.74098,-2.818949 -1.10537,-0.663222 -2.92915,-1.353735 -5.4715,-2.072225 l -3.1502,-0.994772 c -2.81869,-0.829027 -5.1954,-1.713504 -7.1298,-2.653068 -1.93439,-0.939564 -3.56473,-2.210935 -4.89117,-3.81372 -1.32645,-1.658055 -1.98954,-3.758041 -1.98954,-6.300391 0,-3.868794 1.51964,-6.936531 4.55941,-9.202539 3.03976,-2.321276 7.04681,-3.481441 12.02097,-3.481441 z M 131.09949,40.19703 h 7.62744 c 0.27635,0 0.49721,0.110172 0.66301,0.331246 0.22108,0.165805 0.33176,0.387183 0.33176,0.663525 v 40.456445 c 0,0.276343 -0.11068,0.525134 -0.33176,0.746208 -0.1658,0.165805 -0.38666,0.248564 -0.66301,0.248564 h -7.62744 c -0.27634,0 -0.52513,-0.08276 -0.74621,-0.248564 -0.1658,-0.221074 -0.24856,-0.469865 -0.24856,-0.746208 V 41.191801 c 0,-0.276342 0.0828,-0.49772 0.24856,-0.663525 0.22108,-0.221074 0.46987,-0.331246 0.74621,-0.331246 z m 323.26554,0 h 7.62744 c 0.27634,0 0.49721,0.110172 0.66301,0.331246 0.22107,0.165805 0.33176,0.387183 0.33176,0.663525 v 40.456445 c 0,0.276343 -0.11069,0.525134 -0.33176,0.746208 -0.1658,0.165805 -0.38667,0.248564 -0.66301,0.248564 h -7.62744 c -0.27634,0 -0.52462,-0.08276 -0.74569,-0.248564 -0.16581,-0.221074 -0.24908,-0.469865 -0.24908,-0.746208 V 41.191801 c 0,-0.276342 0.0833,-0.49772 0.24908,-0.663525 0.22107,-0.221074 0.46935,-0.331246 0.74569,-0.331246 z M 88.759957,40.27971 h 7.627441 c 0.276343,0 0.497203,0.110689 0.663009,0.331763 0.221074,0.165805 0.331763,0.386666 0.331763,0.663008 v 25.202596 c 0,2.597619 0.663099,4.670191 1.989542,6.217709 1.381708,1.547517 3.288248,2.321305 5.720068,2.321305 2.48708,0 4.47689,-0.773788 5.96914,-2.321305 1.49225,-1.547518 2.23862,-3.62009 2.23862,-6.217709 V 41.274483 c 0,-0.276342 0.0828,-0.497203 0.24857,-0.663008 0.22107,-0.221074 0.46986,-0.331763 0.74621,-0.331763 h 7.54424 c 0.27634,0 0.4972,0.110689 0.66301,0.331763 0.22107,0.165805 0.33176,0.386666 0.33176,0.663008 v 40.373763 c 0,0.276343 -0.11069,0.525134 -0.33176,0.746208 -0.16581,0.165805 -0.38667,0.248564 -0.66301,0.248564 h -7.54424 c -0.27635,0 -0.52514,-0.08276 -0.74621,-0.248564 -0.16581,-0.221074 -0.24857,-0.469865 -0.24857,-0.746208 v -2.653068 c 0,-0.165805 -0.0553,-0.275977 -0.16588,-0.331246 -0.11053,-0.05527 -0.22122,7.6e-5 -0.33176,0.165882 -2.26601,2.929229 -5.66478,4.39353 -10.19679,4.39353 -4.200408,0 -7.737798,-1.216026 -10.611759,-3.647839 C 89.174659,77.143691 87.765186,73.689576 87.765186,69.21283 V 41.274483 c 0,-0.276342 0.08276,-0.497203 0.248563,-0.663008 0.221074,-0.221074 0.469865,-0.331763 0.746208,-0.331763 z m -25.178308,7.626925 c -2.708156,0 -4.780728,1.216026 -6.217709,3.647839 -1.381712,2.266008 -2.072741,5.554606 -2.072741,9.865548 0,4.255672 0.635685,7.460996 1.90686,9.616467 1.436981,2.652887 3.592311,3.979602 6.466272,3.979602 1.547517,0 2.92906,-0.33155 4.144967,-0.994771 1.215906,-0.718491 2.183141,-1.713656 2.901631,-2.984831 1.326444,-2.321276 1.99006,-5.499186 1.99006,-9.533785 0,-4.310941 -0.829133,-7.682298 -2.487187,-10.114111 -1.492249,-2.321277 -3.702924,-3.481958 -6.632153,-3.481958 z m 117.792291,0 c -2.81869,0 -5.02937,1.160681 -6.63215,3.481958 -1.65806,2.431813 -2.48719,5.80317 -2.48719,10.114111 0,3.868793 0.6631,7.046703 1.98954,9.533785 1.54752,2.652887 3.89682,3.979602 7.04712,3.979602 2.81869,0 5.00144,-1.326715 6.54895,-3.979602 1.27118,-2.266008 1.90686,-5.471331 1.90686,-9.616467 0,-4.310942 -0.69103,-7.59954 -2.07274,-9.865548 -1.49225,-2.431813 -3.59223,-3.647839 -6.30039,-3.647839 z m 100.84191,0 c -2.04493,0 -3.81389,0.58034 -5.30614,1.740979 -1.49225,1.105369 -2.56965,2.708289 -3.23287,4.808492 -0.55269,1.934396 -0.82941,4.25576 -0.82941,6.963916 0,2.708155 0.27672,5.029519 0.82941,6.963916 0.60795,2.100202 1.65794,3.730536 3.15019,4.891174 1.54752,1.160638 3.39923,1.740979 5.5547,1.740979 2.04493,0 3.78544,-0.580341 5.22242,-1.740979 1.49225,-1.160638 2.57017,-2.790972 3.23339,-4.891174 0.55269,-1.82386 0.82889,-4.145224 0.82889,-6.963916 0,-2.984498 -0.2762,-5.305862 -0.82889,-6.963916 -0.60795,-2.100203 -1.65794,-3.703123 -3.15019,-4.808492 -1.49225,-1.160639 -3.31603,-1.740979 -5.4715,-1.740979 z m 42.5881,0 c -2.04494,0 -3.81337,0.58034 -5.30562,1.740979 -1.49225,1.105369 -2.57017,2.708289 -3.2334,4.808492 -0.55268,1.934396 -0.82889,4.25576 -0.82889,6.963916 0,2.708155 0.27621,5.029519 0.82889,6.963916 0.60796,2.100202 1.65795,3.730536 3.1502,4.891174 1.54752,1.160638 3.39923,1.740979 5.5547,1.740979 2.04493,0 3.78595,-0.580341 5.22294,-1.740979 1.49224,-1.160638 2.56965,-2.790972 3.23287,-4.891174 0.55269,-1.82386 0.82941,-4.145224 0.82941,-6.963916 0,-2.984498 -0.27672,-5.305862 -0.82941,-6.963916 -0.60795,-2.100203 -1.65794,-3.703123 -3.15019,-4.808492 -1.49225,-1.160639 -3.31603,-1.740979 -5.4715,-1.740979 z m 204.70636,0 c -1.98966,0 -3.67534,0.552927 -5.05705,1.658296 -1.38171,1.10537 -2.37636,2.570187 -2.98431,4.394047 -0.66323,1.547518 -0.99478,3.979054 -0.99478,7.295162 0,3.426646 0.27621,5.830768 0.82889,7.21248 0.55269,1.768591 1.54734,3.233409 2.98432,4.394047 1.49225,1.10537 3.2612,1.65778 5.30613,1.65778 2.15547,0 3.8965,-0.55241 5.22294,-1.65778 1.32644,-1.10537 2.2104,-2.542257 2.65255,-4.310848 0.22108,-0.829027 0.35918,-1.713504 0.41445,-2.653068 0.11053,-0.994833 0.16588,-2.569822 0.16588,-4.725293 0,-2.100202 -0.0554,-3.592434 -0.16588,-4.476729 -0.0553,-0.939565 -0.22079,-1.851455 -0.49713,-2.735751 -0.44215,-1.82386 -1.35404,-3.288677 -2.73575,-4.394047 -1.32644,-1.105369 -3.04005,-1.658296 -5.14026,-1.658296 z" />
    </g>
</svg>
